<svg width="19" height="20" viewBox="0 0 19 20" fill="none" xmlns="http://www.w3.org/2000/svg">
<g id="iconmonstr-telegram-1 1" clip-path="url(#clip0_1081_1023)">
<path id="telegram-1" fill-rule="evenodd" clip-rule="evenodd" d="M14.5538 18.5334C14.8087 18.7139 15.1373 18.759 15.4302 18.6482C15.7231 18.5365 15.9385 18.2864 16.0034 17.9832C16.6913 14.75 18.3602 6.56654 18.9864 3.6255C19.0339 3.40384 18.9547 3.17346 18.7805 3.02542C18.6064 2.87738 18.3649 2.83463 18.1496 2.91459C14.8301 4.14325 4.60733 7.97888 0.42891 9.525C0.163702 9.62317 -0.00888165 9.87809 -0.000173314 10.1575C0.00932669 10.4378 0.197743 10.6808 0.469285 10.7624C2.34316 11.3229 4.80287 12.1027 4.80287 12.1027C4.80287 12.1027 5.95237 15.5741 6.55166 17.3395C6.62687 17.5612 6.80024 17.7354 7.02903 17.7955C7.25703 17.8549 7.50087 17.7924 7.67108 17.6317C8.63374 16.7228 10.1221 15.3176 10.1221 15.3176C10.1221 15.3176 12.9499 17.391 14.5538 18.5334ZM5.83758 11.6641L7.16678 16.0483L7.46208 13.272C7.46208 13.272 12.5976 8.63992 15.5252 5.99971C15.6107 5.92213 15.6226 5.79229 15.5513 5.70125C15.4809 5.61021 15.351 5.58884 15.2537 5.65059C11.8606 7.81738 5.83758 11.6641 5.83758 11.6641Z" fill="#959595"/>
</g>
<defs>
<clipPath id="clip0_1081_1023">
<rect width="19" height="19" fill="white" transform="translate(0 0.5)"/>
</clipPath>
</defs>
</svg>
