<svg width="20" height="20" viewBox="0 0 20 20" fill="none" xmlns="http://www.w3.org/2000/svg">
<path d="M11.7093 1.81629L10.3401 2.36396C10.1205 2.4518 9.87687 2.45896 9.65249 2.38416L7.76101 1.75367C7.31636 1.60545 6.82843 1.78595 6.58729 2.18786L5.73759 3.60402C5.58684 3.85526 5.3335 4.02775 5.04449 4.07592L3.65436 4.30761C3.04824 4.40863 2.67576 5.02728 2.87008 5.61023L3.30456 6.91368C3.42434 7.27302 3.33082 7.66918 3.06298 7.93702L1.63289 9.36711C1.27259 9.72742 1.24082 10.301 1.55913 10.6989L2.72107 12.1513C2.89858 12.3732 2.97331 12.6601 2.92659 12.9404L2.66827 14.4904C2.57598 15.0441 2.95749 15.5654 3.51324 15.6447L5.48131 15.9259C5.80616 15.9723 6.08757 16.1751 6.23432 16.4686L7.01706 18.0341C7.27757 18.5551 7.92649 18.7441 8.42599 18.4444L9.57466 17.7552C9.84264 17.5944 10.1704 17.5682 10.4605 17.6842L11.8112 18.2245C12.2203 18.3881 12.6882 18.2647 12.9634 17.9207L14.261 16.2988C14.4149 16.1064 14.6344 15.9776 14.8774 15.9371L16.5363 15.6606C17.0721 15.5713 17.4387 15.0706 17.3618 14.5328L17.0707 12.495C17.0262 12.1834 17.131 11.869 17.3536 11.6464L18.3671 10.6329C18.7274 10.2726 18.7592 9.69898 18.4409 9.30109L17.2191 7.77391C17.0773 7.5966 17 7.37629 17 7.14922V5.34713C17 4.85829 16.6466 4.4411 16.1644 4.36073L14.4555 4.07592C14.1665 4.02775 13.9132 3.85526 13.7624 3.60402L12.9382 2.23027C12.6856 1.8094 12.165 1.634 11.7093 1.81629Z" fill="url(#paint0_linear_3001_234)"/>
<path d="M12.2448 8.69136L9.3 10.9L7.80134 9.5591C7.57265 9.35447 7.22685 9.35391 6.99749 9.55779C6.73091 9.79475 6.72669 10.2099 6.98841 10.4522L8.69025 12.028C8.98265 12.2988 9.42973 12.313 9.73879 12.0614L12.8803 9.50444C13.1709 9.26789 13.1204 8.81022 12.7853 8.64263C12.6104 8.55522 12.4012 8.57408 12.2448 8.69136Z" fill="black"/>
<defs>
<linearGradient id="paint0_linear_3001_234" x1="2.5" y1="-1" x2="15" y2="18.5" gradientUnits="userSpaceOnUse">
<stop stop-color="#E2B132"/>
<stop offset="0.412079" stop-color="#FEF388"/>
<stop offset="0.75" stop-color="#E9AB26"/>
<stop offset="1" stop-color="#B37402"/>
</linearGradient>
</defs>
</svg>
